<?xml version="1.0" encoding="utf-8"?>
<!-- Generator: Adobe Illustrator 15.1.0, SVG Export Plug-In . SVG Version: 6.00 Build 0)  -->
<!DOCTYPE svg PUBLIC "-//W3C//DTD SVG 1.1//EN" "http://www.w3.org/Graphics/SVG/1.1/DTD/svg11.dtd">
<svg version="1.1" id="Ebene_1" xmlns="http://www.w3.org/2000/svg" xmlns:xlink="http://www.w3.org/1999/xlink" x="0px" y="0px"
	 width="80px" height="80px" viewBox="11.5 11.5 80 80" enable-background="new 11.5 11.5 80 80" xml:space="preserve">
<path fill="#FFFFFF" d="M51.5,11.5c-22.058,0-40,17.942-40,40c0,22.059,17.942,40,40,40c22.059,0,40-17.941,40-40
	C91.5,29.442,73.559,11.5,51.5,11.5z M55.928,42.646h6.135v7.068h-6.523l-0.078,22.524H46.84l0.078-21.748h-5.282v-7.845h5.359
	c0,0,0.078-6.757,0.078-8c0-3.262,2.563-6.757,7.146-6.757c5.514,0,8.699,0,8.699,0v7.767l-6.99,0.078V42.646z"/>
</svg>
