<?xml version="1.0" encoding="utf-8"?>
<!-- Generator: Adobe Illustrator 15.1.0, SVG Export Plug-In . SVG Version: 6.00 Build 0)  -->
<!DOCTYPE svg PUBLIC "-//W3C//DTD SVG 1.1//EN" "http://www.w3.org/Graphics/SVG/1.1/DTD/svg11.dtd">
<svg version="1.1" id="Layer_1" xmlns="http://www.w3.org/2000/svg" xmlns:xlink="http://www.w3.org/1999/xlink" x="0px" y="0px"
	 width="289.393px" height="146.798px" viewBox="0 0 289.393 146.798" enable-background="new 0 0 289.393 146.798"
	 xml:space="preserve">
<g>
	<path fill="#F40050" d="M17.8,109.798c10.2,0,17.8,8,17.8,18.6c0,10.4-7.6,18.4-17.8,18.4s-17.8-8-17.8-18.4
		C0,117.798,7.6,109.798,17.8,109.798z"/>
	<path fill="#F40050" d="M50.798,4.199h29.399v34.399l-1.4,17.8c7.4-6.6,17.2-13.6,30.6-13.6c21.6,0,30.8,15.2,30.8,40v61.599
		h-29.399V86.599c0-14.4-3.801-18.8-12.199-18.8c-7.4,0-12,3.399-18.4,9.6v66.999H50.798V4.199z"/>
	<path fill="#F40050" d="M152.598,15.199c0-9,7.199-15.199,17-15.199c10,0,16.999,6.199,16.999,15.199s-6.999,15.4-16.999,15.4
		C159.797,30.6,152.598,24.199,152.598,15.199z M154.998,45.199h29.398v99.198h-29.398V45.199z"/>
	<path fill="#F40050" d="M189.595,45.199h29.6l12.8,46.799c2.6,9.8,5.199,20.2,7.8,30.6h0.8c2.4-10.399,5-20.8,7.6-30.6l13-46.799
		h28.199l-32.398,99.198h-34L189.595,45.199z"/>
</g>
</svg>
