<?xml version="1.0" encoding="utf-8"?>
<!-- Generator: Adobe Illustrator 17.0.2, SVG Export Plug-In . SVG Version: 6.00 Build 0)  -->
<!DOCTYPE svg PUBLIC "-//W3C//DTD SVG 1.1//EN" "http://www.w3.org/Graphics/SVG/1.1/DTD/svg11.dtd">
<svg version="1.1"
	 id="svg4825" xmlns:cc="http://creativecommons.org/ns#" xmlns:dc="http://purl.org/dc/elements/1.1/" xmlns:inkscape="http://www.inkscape.org/namespaces/inkscape" xmlns:rdf="http://www.w3.org/1999/02/22-rdf-syntax-ns#" xmlns:sodipodi="http://sodipodi.sourceforge.net/DTD/sodipodi-0.dtd" xmlns:svg="http://www.w3.org/2000/svg" sodipodi:docname="dothiv-logo.svg" inkscape:version="0.48.5 r10040"
	 xmlns="http://www.w3.org/2000/svg" xmlns:xlink="http://www.w3.org/1999/xlink" x="0px" y="0px" width="588.107px"
	 height="340.483px" viewBox="0 0 588.107 340.483" enable-background="new 0 0 588.107 340.483" xml:space="preserve">
<g>
	<path fill="#F40050" d="M526.201,123.812v136.193v18.572h-61.906v-18.572v-12.381v0v-30.953v0v-30.953v-18.572v-12.381v-30.953
		c0,0-15.477,0-30.953,0v0h-30.953v0h0v154.765h30.953v30.953h30.953v30.953h61.906v0h0V309.53h30.953v-30.953h30.953v-30.953
		V123.812H526.201z"/>
	<polygon fill="#F40050" points="309.53,185.718 309.53,278.577 309.53,290.959 309.53,309.53 309.53,340.483 340.483,340.483 
		352.865,340.483 371.436,340.483 371.436,321.912 371.436,309.53 371.436,278.577 371.436,216.671 371.436,185.718 
		371.436,167.146 371.436,154.765 371.436,123.812 309.53,123.812 	"/>
	<polygon fill="#F40050" points="309.53,30.953 309.53,61.906 309.53,61.906 340.483,61.906 340.483,61.906 371.436,61.906 
		371.436,0 309.53,0 	"/>
	<polygon fill="#F40050" points="92.859,0 92.859,0 92.859,0 	"/>
	<polygon fill="#F40050" points="278.577,185.718 247.624,185.718 247.624,154.765 216.671,154.765 216.671,123.812 
		154.765,123.812 154.765,123.759 154.765,61.906 154.765,43.334 154.765,30.953 154.765,30.953 154.765,30.953 154.765,0 
		123.812,0 123.812,0 92.859,0 92.859,123.759 92.859,123.812 92.859,154.765 92.859,185.718 92.859,185.718 92.859,216.671 
		92.859,309.53 92.859,340.483 92.859,340.483 154.765,340.483 154.765,309.53 154.765,309.53 154.765,278.577 154.765,278.577 
		154.765,247.624 154.765,185.718 185.718,185.718 216.671,185.718 216.671,198.099 216.671,216.671 216.671,247.624 
		216.671,340.483 278.577,340.483 278.577,309.53 278.577,309.53 278.577,278.577 278.577,278.577 	"/>
	<polygon fill="#F40050" points="30.953,278.577 0,278.577 0,309.53 0,309.53 0,340.483 0,340.483 30.953,340.483 30.953,340.483 
		61.906,340.483 61.906,278.577 61.906,278.577 	"/>
</g>
</svg>
